 <svg  version="1.0" xmlns="http://www.w3.org/2000/svg"  width="300.000000pt" height="292.000000pt" viewBox="0 0 300.000000 292.000000"  preserveAspectRatio="xMidYMid meet">  <g transform="translate(0.000000,292.000000) scale(0.100000,-0.100000)" fill="#35d04e" stroke="none"> <path d="M1400 2877 c-3 -3 -27 -7 -55 -10 -295 -29 -591 -174 -821 -402 -215 -214 -325 -417 -395 -730 -32 -143 -32 -405 0 -550 64 -291 188 -522 385 -719 116 -116 220 -193 356 -264 274 -143 612 -194 905 -137 102 20 193 45 240 65 11 5 49 21 85 36 144 62 324 185 433 297 216 221 364 526 397 818 36 314 -20 605 -168 874 -181 327 -493 570 -862 674 -41 11 -92 23 -114 27 -21 3 -48 8 -60 11 -31 7 -320 16 -326 10z m410 -65 c402 -93 726 -334 923 -685 188 -335 223 -728 101 -1106 -113 -345 -408 -671 -736 -813 -51 -21 -102 -43 -113 -48 -50 -22 -190 -55 -290 -68 -66 -9 -287 -9 -350 0 -312 46 -561 166 -777 376 -214 207 -336 425 -399 712 -31 139 -34 398 -6 535 42 207 145 439 257 579 152 190 313 321 503 411 138 65 226 91 427 129 14 2 104 3 200 1 130 -2 197 -8 260 -23z"/> <path d="M1315 2785 c-170 -27 -325 -83 -475 -172 -229 -136 -400 -318 -514 -548 -101 -205 -145 -390 -144 -608 1 -325 109 -616 320 -864 208 -246 481 -399 816 -457 98 -17 305 -17 402 0 41 7 89 15 106 18 57 10 188 57 274 98 135 65 240 138 355 249 194 187 327 423 379 675 25 119 27 145 27 291 1 534 -309 1005 -806 1225 -85 38 -255 84 -354 97 -108 14 -284 12 -386 -4z m419 -41 c428 -68 796 -352 980 -755 74 -165 109 -331 109 -524 0 -164 -19 -282 -70 -429 -66 -190 -165 -347 -312 -495 -320 -322 -798 -453 -1239 -340 -278 71 -516 225 -699 452 -392 487 -373 1204 44 1667 166 185 344 302 567 375 56 18 135 38 176 45 41 6 82 13 90 15 49 9 267 3 354 -11z"/> <path d="M1410 2650 c0 -11 5 -20 10 -20 7 0 10 -24 8 -62 -4 -84 -20 -82 -75 10 -36 57 -49 72 -69 72 -18 0 -25 -7 -30 -27 -4 -16 -15 -61 -25 -102 -11 -41 -19 -76 -19 -78 0 -7 56 -2 70 7 12 8 13 13 3 29 -10 16 -9 19 12 23 20 4 24 1 22 -16 -2 -19 3 -21 43 -19 25 1 64 2 88 2 43 0 69 24 43 41 -7 4 -11 17 -9 30 3 19 7 16 36 -25 25 -35 38 -46 55 -43 20 3 22 9 25 81 2 42 7 77 12 77 6 0 10 9 10 20 0 17 -7 20 -45 20 -38 0 -45 -3 -45 -19 0 -11 5 -21 11 -23 6 -2 10 -12 8 -23 -3 -15 -10 -10 -32 23 -24 38 -31 42 -67 42 -33 0 -40 -3 -40 -20z m105 -45 c21 -31 41 -58 45 -60 4 -3 5 17 2 43 -3 26 -9 49 -13 50 -22 9 -6 22 26 22 19 0 35 -4 35 -10 0 -5 -4 -10 -10 -10 -5 0 -10 -35 -12 -77 -2 -45 -8 -78 -14 -80 -7 -2 -33 26 -59 62 -26 37 -49 65 -51 63 -7 -8 9 -108 17 -108 5 0 9 -4 9 -10 0 -5 -16 -10 -35 -10 -19 0 -35 5 -35 10 0 6 5 10 10 10 6 0 10 30 10 70 0 40 -4 70 -10 70 -5 0 -10 5 -10 10 0 6 13 10 28 10 23 0 36 -10 67 -55z m-190 -12 c15 -27 39 -63 52 -80 16 -22 19 -33 11 -33 -7 0 -22 -3 -34 -6 -17 -4 -21 -1 -20 18 1 20 -4 23 -34 23 -29 0 -36 -4 -38 -22 -2 -14 2 -23 10 -24 15 -1 -21 -17 -40 -18 -9 -1 -10 4 -4 17 5 9 17 52 26 95 11 49 22 77 31 77 7 0 25 -21 40 -47z"/> <path d="M1276 2574 c-11 -30 -7 -42 14 -37 23 6 24 12 6 36 -12 16 -14 16 -20 1z"/> <path d="M1743 2640 c-57 -23 -75 -123 -29 -168 20 -21 35 -25 80 -26 31 -1 56 -4 56 -9 0 -7 26 -20 122 -60 40 -18 58 -9 58 28 0 3 9 1 20 -5 24 -13 26 -30 5 -30 -26 0 -16 -29 17 -46 17 -9 42 -29 55 -45 29 -34 68 -40 60 -9 -3 11 -1 23 4 26 5 3 9 10 9 16 0 7 -6 6 -15 -2 -8 -7 -15 -22 -15 -33 0 -20 -1 -20 -26 4 -23 22 -24 24 -7 29 29 8 96 87 89 105 -8 21 8 19 29 -5 15 -17 17 -31 12 -91 l-6 -70 22 28 c12 15 25 30 29 31 5 2 8 12 8 23 0 24 12 24 35 -1 18 -19 17 -20 -3 -20 -12 0 -22 -3 -22 -7 0 -5 -20 -30 -44 -58 -29 -33 -48 -47 -54 -40 -6 6 -7 41 -3 87 l7 78 -21 -21 c-11 -12 -15 -23 -10 -25 6 -2 9 -29 7 -61 -3 -49 0 -60 16 -70 18 -11 26 -5 72 48 28 32 55 57 60 54 4 -3 13 2 19 9 10 11 5 20 -23 41 -34 26 -62 26 -52 0 2 -7 -2 -21 -10 -32 -12 -16 -13 -12 -9 37 5 52 4 56 -25 78 -32 25 -50 22 -50 -8 0 -24 -67 -104 -75 -89 -4 6 -2 46 5 90 10 63 10 82 0 94 -19 22 -27 19 -95 -34 -94 -74 -112 -73 -81 8 12 28 28 52 38 54 31 8 20 27 -28 47 -51 22 -68 18 -60 -13 5 -22 -31 -117 -45 -117 -14 0 -10 22 8 42 22 25 9 36 -50 44 -37 5 -47 4 -47 -8 0 -8 5 -19 11 -25 13 -13 -5 -28 -21 -18 -14 9 -12 68 3 89 17 23 53 14 60 -15 8 -29 39 -21 48 12 9 34 2 43 -40 57 -39 14 -67 14 -98 2z m108 -20 c10 -6 19 -19 19 -29 0 -28 -12 -33 -24 -8 -16 32 -69 35 -90 5 -19 -27 -21 -79 -4 -96 7 -7 22 -12 35 -12 26 0 32 27 11 49 -11 10 -5 11 27 5 44 -7 56 -14 38 -21 -7 -3 -13 -13 -13 -23 0 -9 -6 -23 -14 -29 -20 -17 -97 3 -118 30 -24 29 -23 80 3 113 17 21 29 26 65 26 25 0 54 -5 65 -10z m116 -42 c33 -12 44 -28 19 -28 -17 0 -60 -104 -52 -125 7 -18 2 -18 -41 -3 -37 13 -42 23 -15 30 24 7 64 108 50 126 -13 15 -3 15 39 0z m162 -130 c-5 -29 -10 -70 -11 -90 -1 -21 -3 -38 -4 -38 -2 0 -15 5 -29 12 -25 11 -34 28 -15 28 19 0 10 39 -11 50 -25 14 -49 6 -49 -15 0 -18 -5 -19 -32 -4 -20 11 -19 11 8 29 16 9 52 35 79 58 62 50 75 43 64 -30z"/> <path d="M2065 2454 c-17 -13 -18 -16 -5 -24 24 -15 30 -12 30 15 0 29 1 29 -25 9z"/> <path d="M1029 2574 c-43 -18 -75 -69 -66 -105 13 -47 45 -87 76 -94 42 -9 103 21 115 58 15 42 -4 53 -38 22 -15 -14 -31 -25 -36 -25 -20 0 -51 45 -48 70 3 22 8 25 40 25 46 0 52 6 37 39 -14 29 -29 31 -80 10z m68 -19 c8 -22 -6 -33 -17 -15 -8 13 -13 13 -37 0 -35 -20 -39 -46 -13 -87 23 -39 59 -44 90 -13 22 22 30 25 30 10 0 -24 -50 -60 -82 -60 -53 1 -88 40 -88 98 0 55 99 111 117 67z"/> <path d="M843 2464 c-37 -19 -67 -75 -59 -110 4 -13 19 -38 34 -55 22 -24 36 -31 66 -31 21 0 43 5 48 10 7 7 -3 9 -30 5 -36 -5 -45 -2 -72 25 -42 42 -42 90 1 126 40 34 83 34 114 0 35 -37 41 -80 18 -113 -25 -34 -25 -84 0 -89 41 -8 67 55 27 65 -15 4 -17 9 -10 23 24 46 -2 119 -52 146 -30 17 -46 17 -85 -2z m153 -185 c10 -17 -23 -46 -38 -31 -8 8 -8 15 2 27 15 18 26 19 36 4z"/> <path d="M837 2423 c-27 -26 26 -113 68 -113 46 0 50 56 8 102 -16 18 -63 24 -76 11z m52 -13 c26 -14 47 -68 32 -83 -23 -23 -81 42 -68 76 7 20 12 20 36 7z"/> <path d="M658 2302 c-68 -68 -84 -102 -50 -102 27 0 102 -68 96 -85 -11 -26 25 -29 46 -4 11 13 43 47 71 75 50 50 56 74 20 74 -22 0 -91 70 -91 93 0 31 -24 18 -92 -51z m79 41 c-2 -22 87 -108 103 -98 22 14 8 -13 -21 -41 -27 -25 -30 -26 -25 -8 4 14 0 27 -14 39 -20 18 -21 18 -47 -8 -26 -26 -26 -27 -8 -47 12 -13 25 -18 38 -14 16 5 15 0 -9 -30 -23 -29 -30 -33 -32 -19 -6 30 -85 105 -104 99 -26 -6 -22 6 12 39 28 27 30 27 30 8 0 -11 7 -26 15 -33 13 -11 20 -9 40 10 24 22 24 24 8 42 -9 10 -23 16 -30 14 -21 -8 -15 5 14 36 31 33 34 34 30 11z m-23 -72 c9 -15 -23 -36 -36 -23 -5 5 -7 15 -4 21 9 13 33 14 40 2z m66 -77 c0 -18 -36 -18 -43 0 -8 20 13 38 30 25 7 -7 13 -18 13 -25z"/> <path d="M1473 2246 l-20 -39 95 -184 c51 -102 92 -186 90 -187 -37 -27 -70 -47 -72 -45 -2 2 -39 75 -82 161 l-79 157 -225 -446 c-124 -246 -226 -451 -228 -455 -2 -4 129 -8 291 -8 l294 0 6 34 c7 46 42 96 91 132 l41 29 202 3 202 3 3 230 3 230 -190 -2 -190 -1 -106 213 -106 213 -20 -38z m76 -125 c23 -47 41 -94 41 -104 0 -10 4 -16 8 -13 11 7 55 -71 47 -84 -3 -5 3 -17 15 -27 11 -10 20 -23 20 -29 0 -7 5 -14 12 -16 8 -3 6 -11 -7 -25 -23 -23 -55 -37 -55 -23 0 5 9 10 20 12 19 3 19 4 -4 55 -14 28 -22 54 -19 57 3 2 -10 23 -27 45 -22 26 -31 47 -27 60 3 12 0 19 -7 18 -6 -1 -10 8 -9 21 2 12 -3 22 -10 22 -6 0 -24 25 -39 55 -33 63 -32 62 -14 62 8 0 32 -39 55 -86z m-80 -189 c19 -40 22 -55 13 -64 -9 -9 -13 -4 -18 20 -4 18 -11 32 -16 32 -5 0 -6 5 -2 12 4 7 3 8 -4 4 -7 -4 -12 -1 -12 8 0 9 -4 16 -10 16 -15 0 -14 -2 44 -118 l53 -107 -21 -42 -21 -42 -113 -1 c-63 0 -112 3 -110 8 2 4 36 71 76 149 39 79 72 146 72 149 0 4 -9 -1 -20 -11 -33 -30 -36 7 -4 64 l28 50 21 -37 c11 -20 31 -61 44 -90z m-139 -66 c0 -19 -46 -107 -56 -106 -4 0 -9 -6 -10 -14 -1 -8 -7 -31 -14 -51 -7 -20 -10 -45 -7 -55 4 -14 -3 -21 -23 -29 -34 -11 -46 -3 -22 15 10 8 12 13 5 14 -18 0 6 50 23 50 8 0 13 8 12 18 -2 23 22 82 34 82 5 0 6 5 2 12 -4 6 -3 8 3 5 6 -4 14 3 18 16 4 12 8 25 10 30 1 4 3 14 4 23 1 18 21 9 21 -10z m205 -52 c21 -35 31 -45 47 -41 16 4 17 3 7 -9 -6 -8 -18 -14 -26 -14 -7 0 -13 -7 -11 -16 2 -10 -3 -19 -11 -22 -8 -3 -11 0 -7 6 4 6 -5 34 -19 63 -22 43 -27 79 -11 79 2 0 16 -21 31 -46z m516 14 c1 -7 3 -23 4 -36 2 -20 0 -22 -12 -10 -20 21 -25 58 -7 58 8 0 15 -6 15 -12z m-41 -195 l0 -158 -158 0 c-142 0 -162 -3 -207 -23 -27 -13 -65 -37 -82 -54 l-33 -32 0 105 c0 57 5 122 11 144 22 81 87 147 163 165 17 5 93 8 169 9 l137 1 0 -157z m-505 -12 c-7 -34 -16 -38 -35 -16 -10 12 -8 18 11 34 29 24 33 21 24 -18z m-40 -196 l0 -155 -203 0 c-112 0 -202 3 -200 8 2 4 37 73 78 154 l75 148 125 0 125 0 0 -155z m588 25 c-3 -11 -14 -20 -25 -20 -18 0 -18 1 -1 24 21 27 34 25 26 -4z m-495 -90 c16 0 16 -26 -1 -33 -7 -3 -19 -23 -25 -46 -13 -40 -43 -68 -62 -56 -6 4 -2 18 10 35 12 17 20 44 20 70 0 39 2 42 23 36 12 -3 28 -6 35 -6z m-506 -120 c2 -8 -8 -14 -24 -15 -27 -2 -37 13 -20 29 4 4 8 12 8 17 1 5 2 12 3 16 1 10 29 -30 33 -47z"/> <path d="M2343 2270 c-55 -22 -72 -105 -33 -160 30 -42 55 -54 83 -38 12 7 28 11 35 10 25 -6 24 29 -2 63 -30 38 -56 46 -56 16 0 -26 -16 -35 -24 -15 -15 39 59 93 87 65 6 -6 11 -25 12 -43 0 -38 15 -45 45 -20 l22 18 -21 42 c-31 61 -89 86 -148 62z m86 -14 c15 -8 36 -30 46 -49 16 -30 17 -38 6 -51 -21 -25 -31 -19 -25 13 9 43 -25 75 -63 60 -42 -16 -63 -39 -63 -70 0 -33 12 -43 41 -34 15 5 18 12 14 28 -5 17 1 14 23 -13 l30 -34 -36 -13 c-41 -14 -61 -6 -86 31 -31 48 -17 104 32 130 34 19 46 19 81 2z"/> <path d="M504 2110 c-29 -43 -27 -71 4 -63 25 6 113 -47 110 -67 -3 -12 -23 -16 -100 -18 -88 -2 -97 -5 -103 -24 -6 -16 6 -34 56 -84 35 -35 61 -64 58 -64 -3 0 -20 7 -38 16 -69 34 -134 -15 -146 -111 -8 -62 -3 -75 25 -58 15 10 22 8 40 -7 18 -16 25 -17 42 -7 16 10 21 9 32 -5 25 -34 44 -21 56 38 7 31 9 70 6 85 -3 17 -1 29 4 29 6 0 16 12 22 28 7 15 13 29 15 31 1 2 9 -4 18 -13 20 -20 55 -5 55 23 0 24 -25 45 -45 37 -9 -3 -20 3 -27 14 -18 28 -35 25 -52 -9 -13 -25 -14 -31 -1 -41 8 -6 20 -8 26 -4 9 5 10 0 6 -17 -4 -13 -7 -27 -7 -31 0 -14 -20 -8 -20 5 0 7 -27 39 -59 71 -79 78 -74 90 31 81 55 -4 84 -2 94 6 17 14 19 -2 3 -32 -6 -11 -8 -25 -6 -32 4 -10 26 30 31 58 1 6 16 30 34 54 24 33 29 47 21 57 -6 7 -17 10 -24 8 -20 -8 -102 43 -108 66 -8 30 -24 24 -53 -20z m92 -37 c32 -19 61 -30 71 -26 8 3 14 2 12 -3 -29 -62 -49 -83 -49 -50 0 21 -104 78 -126 69 -18 -7 -18 -6 -3 17 8 14 20 32 24 40 9 13 10 13 13 0 1 -8 27 -29 58 -47z m-26 -193 c0 -5 7 -10 16 -10 9 0 14 -6 11 -12 -2 -7 -15 -11 -28 -10 -30 5 -31 6 -23 26 7 17 24 22 24 6z m76 -31 c9 -15 -11 -33 -30 -26 -9 4 -13 13 -10 22 7 17 30 20 40 4z m-142 -71 c14 -13 27 -32 28 -43 4 -33 -13 -125 -23 -125 -5 0 -9 6 -9 14 0 15 -53 29 -58 15 -6 -15 -22 -10 -22 6 0 19 -56 21 -64 3 -3 -7 -3 7 0 32 11 79 41 120 90 120 20 0 43 -9 58 -22z"/> <path d="M396 1738 c-21 -30 -20 -35 9 -40 18 -4 26 0 30 14 4 10 11 16 16 12 5 -3 7 -14 4 -24 -4 -14 1 -19 24 -22 23 -3 31 0 35 15 7 28 -3 47 -31 58 -40 15 -71 10 -87 -13z m82 -4 c25 -17 31 -47 7 -38 -8 4 -15 13 -15 20 0 24 -31 29 -46 9 -8 -10 -17 -15 -21 -11 -9 8 24 36 42 36 6 0 21 -7 33 -16z"/> <path d="M2560 2046 c0 -8 -25 -26 -55 -40 -69 -31 -84 -61 -58 -115 10 -19 30 -42 44 -50 24 -13 31 -12 78 8 29 12 60 19 71 16 10 -3 21 -1 24 4 11 17 -21 81 -40 81 -12 0 -14 3 -6 13 7 8 4 25 -10 55 -19 40 -48 57 -48 28z m35 -32 c19 -45 19 -43 -3 -37 -10 2 -38 -6 -63 -19 -33 -18 -44 -29 -44 -47 0 -39 25 -47 80 -25 26 10 50 28 55 39 7 19 7 19 19 -2 14 -27 14 -46 1 -38 -5 3 -31 -3 -56 -14 -26 -12 -57 -21 -70 -21 -26 0 -64 43 -64 74 0 32 13 45 69 71 29 14 51 31 51 40 0 25 9 17 25 -21z m13 -75 c4 -22 -87 -62 -105 -47 -20 17 -16 26 25 48 43 22 75 22 80 -1z"/> <path d="M470 1902 c0 -11 37 -32 44 -25 15 15 4 33 -19 33 -14 0 -25 -3 -25 -8z"/> <path d="M2647 1836 c-7 -16 -94 -38 -124 -30 -28 8 -34 -6 -22 -49 10 -38 31 -48 46 -23 4 7 19 17 33 21 22 7 20 2 -17 -38 -47 -51 -46 -48 -37 -71 8 -20 46 -20 110 -1 35 10 50 11 55 3 4 -6 15 -8 24 -4 13 5 15 13 10 38 -4 18 -9 36 -12 41 -7 12 -31 8 -37 -8 -3 -8 -12 -15 -21 -15 -12 0 -8 10 15 39 27 34 30 42 22 72 -9 36 -35 50 -45 25z m33 -34 c0 -18 -16 -45 -47 -81 -32 -36 -41 -52 -27 -48 10 3 31 9 47 13 15 3 31 13 36 21 6 12 11 8 19 -16 10 -29 10 -32 -7 -26 -11 3 -49 -1 -86 -10 -81 -18 -75 -19 -75 3 0 9 22 40 50 67 27 28 49 53 50 56 0 12 -93 -18 -105 -35 -11 -15 -13 -14 -19 6 -10 38 -8 52 7 40 16 -14 137 18 137 36 0 7 5 10 10 7 6 -3 10 -18 10 -33z"/> <path d="M2692 1618 c-14 -14 -111 -28 -118 -16 -3 4 -12 8 -20 8 -10 0 -14 -12 -14 -39 0 -66 18 -89 44 -57 16 21 121 26 121 6 0 -10 -29 -25 -82 -44 -76 -26 -83 -31 -83 -55 0 -23 11 -31 91 -69 50 -24 93 -42 94 -40 2 2 5 19 7 38 3 33 1 35 -27 36 -16 1 -41 6 -54 11 l-25 10 34 11 c21 8 37 9 44 3 25 -21 36 5 35 79 -1 122 -13 152 -47 118z m37 -72 c1 -15 -1 -16 -14 -6 -18 15 -138 6 -143 -10 -8 -22 -22 3 -22 37 0 29 2 33 14 24 21 -18 136 -3 144 18 5 12 8 8 13 -14 4 -16 7 -38 8 -49z m-4 -114 c-3 -4 -9 -1 -13 5 -5 8 -22 7 -59 -5 -29 -10 -53 -19 -53 -23 0 -3 23 -15 52 -27 40 -17 54 -19 60 -9 5 7 8 0 8 -19 l0 -31 -85 44 c-47 24 -85 50 -85 57 0 6 31 22 68 34 37 12 77 28 87 36 19 14 20 12 23 -21 2 -19 1 -38 -3 -41z"/> <path d="M417 1533 c-11 -10 -8 -86 3 -103 9 -13 12 -13 24 3 17 21 40 23 32 1 -3 -9 -6 -17 -6 -19 0 -12 -72 -16 -85 -5 -19 16 -19 56 0 64 20 7 19 35 -1 43 -8 3 -26 1 -40 -5 -20 -10 -24 -19 -24 -57 0 -86 50 -135 123 -121 65 12 97 72 77 145 -9 36 -14 41 -40 41 -16 0 -32 5 -35 10 -7 12 -19 13 -28 3z m28 -23 c3 -6 17 -7 29 -4 18 4 25 1 30 -18 11 -44 6 -85 -15 -112 -16 -21 -29 -26 -64 -26 -65 0 -103 49 -90 117 5 28 10 33 33 33 26 -1 26 -1 8 -15 -23 -17 -26 -72 -5 -86 19 -12 76 -11 100 1 27 15 27 70 -1 70 -10 0 -24 -8 -29 -17 -9 -16 -10 -14 -11 9 0 14 -3 33 -6 42 -7 17 11 22 21 6z"/> <path d="M2537 1333 c-3 -5 -12 -42 -21 -83 -16 -70 -16 -75 0 -87 17 -12 17 -13 -2 -13 -21 0 -57 -71 -47 -96 3 -7 0 -14 -6 -14 -14 0 -44 -58 -36 -70 3 -6 0 -10 -7 -10 -27 0 -68 -63 -68 -104 0 -18 -5 -26 -17 -26 -21 0 -77 -66 -68 -80 3 -6 16 -10 28 -10 26 -1 97 -64 97 -87 0 -14 -2 -14 -20 2 -25 22 -51 6 -42 -27 4 -16 -6 -9 -34 22 -22 25 -38 51 -36 61 5 31 -31 23 -67 -15 -34 -35 -34 -56 -2 -56 16 0 81 -58 81 -72 0 -3 -9 -4 -20 -1 -28 7 -37 -23 -15 -47 10 -11 23 -20 29 -20 19 1 138 118 131 129 -3 6 0 11 9 11 17 0 66 56 66 76 0 9 -7 14 -18 12 -24 -4 -102 63 -102 88 0 16 2 16 16 -5 12 -17 24 -22 45 -19 19 3 29 0 29 -8 0 -14 30 -34 52 -34 21 0 58 63 58 98 0 37 -37 68 -69 57 -17 -5 -20 -3 -14 11 4 10 0 22 -11 29 -15 11 -13 14 18 29 42 20 56 20 56 1 0 -17 30 -35 58 -35 25 0 45 24 73 88 18 45 20 55 8 62 -8 5 -18 5 -22 1 -11 -11 -117 31 -117 47 0 6 9 12 20 12 11 0 23 7 26 15 8 21 29 19 45 -5 8 -12 27 -22 44 -23 28 -2 30 1 42 47 7 27 13 63 15 80 3 28 0 31 -22 29 -39 -4 -128 19 -134 33 -6 15 -22 19 -29 7z m25 -24 c6 -17 119 -40 135 -27 17 13 17 2 1 -74 -10 -50 -15 -58 -35 -58 -13 0 -23 5 -23 10 0 6 6 10 14 10 13 0 26 28 26 58 0 17 -47 15 -53 -3 -4 -8 -2 -17 3 -20 21 -13 9 -25 -17 -19 -37 9 -41 14 -20 25 25 15 21 36 -9 43 -31 8 -30 9 -39 -32 -5 -24 -3 -33 9 -38 19 -7 21 -24 4 -24 -36 1 -41 15 -28 89 12 66 23 87 32 60z m-42 -182 c0 -17 105 -61 125 -53 19 7 19 -2 0 -48 -30 -72 -87 -95 -101 -42 -4 19 -11 22 -37 18 -18 -2 -40 -11 -49 -20 -13 -10 -18 -11 -18 -3 0 30 22 51 61 57 21 4 42 11 45 15 6 11 -37 29 -50 21 -5 -3 -1 -9 10 -13 16 -6 16 -8 2 -8 -25 -1 -31 15 -17 54 13 35 29 47 29 22z m-79 -187 c23 -13 26 -35 3 -26 -21 8 -54 -20 -54 -46 0 -24 32 -23 55 2 22 24 13 26 -20 4 -26 -17 -35 -5 -11 15 21 17 105 2 117 -21 13 -24 5 -55 -21 -86 -17 -20 -22 -22 -42 -11 -22 13 -22 13 -3 17 29 6 45 22 45 43 0 25 -32 25 -55 -1 -20 -22 -64 -27 -83 -8 -19 19 -14 50 13 91 29 41 29 41 56 27z m-104 -134 c-8 -20 85 -98 107 -90 25 10 19 -10 -14 -41 -27 -25 -30 -27 -30 -9 -1 25 -86 98 -105 90 -20 -7 -19 0 7 34 23 31 44 41 35 16z m-93 -103 c-6 -26 69 -108 91 -99 11 4 14 12 10 26 -7 23 7 27 25 5 10 -12 2 -24 -47 -69 -57 -54 -58 -54 -77 -36 -22 21 -15 40 7 21 11 -9 17 -8 27 4 10 13 6 22 -26 59 -24 28 -46 43 -56 41 -25 -4 -22 4 9 37 31 32 43 36 37 11z"/> <path d="M2563 1033 c-3 -8 2 -22 11 -31 15 -15 17 -15 32 0 19 19 13 33 -16 41 -14 3 -23 0 -27 -10z"/> <path d="M436 1314 c-39 -10 -62 -11 -70 -5 -14 12 -36 -5 -31 -23 2 -6 6 -23 9 -38 7 -29 30 -38 39 -14 3 7 15 16 28 19 18 5 16 0 -15 -32 -34 -35 -37 -42 -31 -75 8 -42 23 -55 39 -33 16 20 91 40 126 32 36 -8 42 3 29 48 -10 37 -31 48 -46 24 -4 -8 -18 -16 -31 -20 -20 -5 -17 1 17 39 43 46 49 62 29 82 -14 14 -15 14 -92 -4z m84 -18 c0 -8 -23 -39 -51 -70 l-51 -56 34 7 c52 10 78 21 79 35 1 18 17 -23 18 -46 1 -14 -2 -16 -13 -7 -17 14 -115 -5 -132 -26 -18 -21 -24 -16 -24 19 0 25 11 43 48 81 l47 49 -35 -7 c-19 -4 -45 -13 -56 -20 -26 -16 -34 -11 -34 24 0 17 3 22 11 14 7 -7 27 -6 67 2 77 17 92 17 92 1z"/> <path d="M2010 1025 l0 -125 -137 0 c-89 1 -151 6 -176 14 -84 30 -143 91 -154 160 l-6 36 -318 0 -318 0 -16 -30 c-8 -16 -15 -31 -15 -35 0 -3 137 -5 303 -5 l304 0 18 -39 c23 -52 89 -115 150 -143 46 -21 67 -23 243 -26 l192 -4 0 161 0 161 -35 0 -35 0 0 -125z m41 88 c1 -10 2 -71 3 -135 2 -121 0 -129 -39 -117 -5 1 -87 3 -180 4 -149 1 -174 4 -203 20 -20 12 -30 25 -27 33 3 9 0 12 -9 9 -16 -6 -50 26 -39 36 3 4 -1 7 -10 7 -20 0 -41 36 -31 53 4 6 4 9 0 5 -5 -4 -19 4 -33 16 -24 23 -27 23 -290 23 -174 0 -268 4 -275 11 -8 8 78 11 295 12 l305 0 7 -29 c3 -17 17 -47 31 -66 13 -20 21 -41 18 -47 -4 -6 -2 -8 4 -4 13 8 80 -36 75 -50 -4 -13 353 -12 366 1 6 6 11 61 12 123 1 61 6 112 11 112 4 0 9 -8 9 -17z"/> <path d="M403 1093 c-7 -2 -13 -13 -13 -23 0 -18 23 -44 32 -35 2 3 5 -10 5 -29 0 -23 -5 -33 -15 -32 -24 2 -50 -50 -36 -71 17 -27 37 -21 46 14 l8 31 29 -29 c33 -33 75 -38 120 -15 41 21 54 42 54 84 0 76 -62 124 -131 101 -25 -8 -37 -8 -45 0 -11 11 -33 13 -54 4z m91 -22 c39 18 93 3 111 -31 22 -43 19 -78 -10 -104 -72 -67 -161 -22 -153 76 2 35 0 43 -14 43 -24 0 -35 15 -18 25 10 6 23 4 37 -5 17 -12 28 -12 47 -4z m-82 -141 c-2 -17 -10 -30 -18 -30 -17 0 -18 14 -4 41 16 29 27 23 22 -11z"/> <path d="M523 1038 c-43 -11 -69 -49 -53 -77 6 -12 21 -21 34 -21 32 0 91 42 91 64 0 29 -34 45 -72 34z m54 -25 c9 -22 -31 -53 -68 -53 -38 0 -39 29 -1 52 35 22 61 23 69 1z"/> <path d="M621 861 c-22 -17 -26 -17 -51 -3 -29 17 -57 11 -66 -13 -9 -22 62 -106 82 -98 8 3 13 11 10 18 -2 7 13 25 34 40 39 27 70 28 70 2 0 -17 -69 -67 -93 -67 -23 0 -21 -17 6 -57 24 -36 57 -44 57 -15 0 10 18 31 40 48 22 16 40 33 40 37 0 5 5 5 10 2 6 -3 10 -20 10 -36 0 -23 -6 -32 -27 -40 -33 -12 -43 -26 -43 -61 0 -19 13 -37 48 -67 52 -45 72 -51 72 -21 0 24 56 89 87 101 13 5 23 13 23 18 0 18 -72 70 -88 63 -10 -3 -13 -1 -8 6 9 15 -43 64 -61 58 -8 -3 -13 0 -12 7 4 29 -3 46 -27 71 -32 31 -78 34 -113 7z m90 -4 c25 -19 41 -57 35 -80 -4 -12 -26 -37 -51 -55 -25 -18 -45 -40 -45 -50 0 -13 -6 -9 -25 13 -28 34 -32 50 -11 42 16 -6 106 58 106 75 0 14 -30 48 -42 48 -19 0 -98 -64 -98 -78 0 -12 -4 -12 -20 3 -24 22 -26 40 -4 31 10 -4 14 -1 11 6 -2 7 -13 13 -24 13 -29 0 -36 10 -18 25 13 11 20 10 43 -7 l28 -20 29 23 c33 26 61 30 86 11z m99 -112 c8 -10 10 -29 6 -56 -4 -22 -4 -45 0 -50 8 -14 43 33 36 49 -7 20 27 1 53 -29 16 -18 17 -21 3 -16 -23 8 -110 -85 -101 -109 6 -15 2 -14 -25 4 -37 27 -72 69 -72 88 0 17 46 48 60 39 6 -4 10 12 10 44 0 52 8 62 30 36z"/> <path d="M757 633 c-11 -10 -8 -41 4 -49 14 -8 53 31 45 45 -8 12 -39 15 -49 4z"/> <path d="M945 620 c-3 -5 -4 -14 0 -20 3 -5 -8 -30 -24 -56 -26 -43 -29 -45 -33 -23 -5 36 -34 36 -52 0 l-16 -30 57 -37 c93 -59 101 -61 121 -33 24 34 21 44 -10 44 -16 -1 -28 1 -28 3 0 13 53 91 60 87 4 -3 13 2 20 10 9 11 4 19 -29 39 -44 28 -57 31 -66 16z m53 -22 c28 -17 32 -23 18 -28 -18 -6 -76 -87 -76 -106 0 -15 28 -26 35 -14 7 12 25 13 25 2 0 -5 -6 -16 -12 -25 -12 -16 -18 -14 -76 22 -78 48 -76 45 -62 70 12 23 33 20 24 -3 -3 -7 2 -18 10 -25 12 -10 21 -3 51 44 28 45 33 60 24 71 -17 20 -2 17 39 -8z"/> <path d="M2058 593 c-41 -28 -50 -53 -19 -53 28 0 35 -17 37 -90 1 -73 12 -83 54 -50 l25 19 -19 32 c-17 30 -18 32 -2 26 10 -4 20 -7 22 -7 3 0 3 -4 0 -9 -3 -5 0 -14 7 -20 10 -8 23 -4 50 15 41 27 46 42 20 50 -58 19 -108 54 -113 80 -7 36 -18 38 -62 7z m48 -15 c-1 -25 52 -66 97 -75 33 -7 34 -16 2 -37 -30 -19 -35 -20 -35 -3 0 11 -39 37 -55 37 -13 0 -3 -60 11 -68 13 -7 12 -11 -10 -26 l-26 -16 0 60 c0 66 -12 100 -35 100 -23 0 -18 14 13 32 35 23 39 22 38 -4z"/> <path d="M1895 461 c6 -29 5 -31 -22 -31 -22 0 -25 -2 -13 -10 30 -19 46 -11 48 24 1 19 -3 38 -9 41 -8 5 -9 -2 -4 -24z"/> <path d="M1081 451 c11 -17 12 -25 1 -42 -17 -27 -9 -35 12 -13 10 9 15 23 12 31 -3 8 -1 11 4 8 6 -3 10 1 10 9 0 9 -4 16 -9 16 -5 0 -17 3 -26 6 -15 6 -15 4 -4 -15z"/> <path d="M1335 450 c-4 -6 -10 -8 -15 -5 -4 3 -10 -2 -14 -10 -3 -9 0 -15 9 -15 18 0 18 -13 4 -81 -9 -42 -9 -53 2 -60 8 -5 17 -9 20 -9 8 0 38 173 32 183 -6 10 -31 9 -38 -3z"/> <path d="M1658 446 c-50 -25 -26 -133 27 -120 19 5 25 2 25 -9 0 -20 -16 -31 -25 -17 -9 15 -35 12 -35 -5 0 -23 30 -34 63 -22 l30 10 -6 66 c-3 36 -8 73 -12 83 -9 22 -38 28 -67 14z m37 -57 c8 -34 -1 -51 -15 -29 -12 19 -13 73 -1 65 5 -3 12 -19 16 -36z"/> <path d="M1406 434 c-10 -9 -16 -33 -16 -59 0 -36 4 -45 22 -51 16 -5 27 -1 40 16 10 12 18 17 18 12 0 -6 -4 -14 -10 -17 -5 -3 -10 -15 -10 -26 0 -10 -7 -19 -15 -19 -8 0 -15 5 -15 10 0 6 -10 10 -21 10 -20 0 -20 -2 -6 -23 9 -14 24 -22 43 -22 37 0 54 32 54 107 0 47 -4 59 -19 68 -27 14 -47 13 -65 -6z m44 -49 c0 -19 -4 -35 -10 -35 -5 0 -10 16 -10 35 0 19 5 35 10 35 6 0 10 -16 10 -35z"/> <path d="M1540 443 c-22 -9 -30 -24 -30 -63 0 -48 12 -64 44 -58 21 4 26 1 26 -14 0 -17 -5 -19 -31 -13 -26 6 -30 4 -27 -12 2 -12 13 -19 33 -21 52 -4 60 9 57 90 -4 87 -21 110 -72 91z m30 -42 c0 -11 3 -26 6 -35 4 -11 1 -16 -10 -16 -12 0 -16 10 -16 35 0 19 5 35 10 35 6 0 10 -9 10 -19z"/> </g> </svg> 